<svg width="75" height="72" viewBox="0 0 75 72" fill="none" xmlns="http://www.w3.org/2000/svg">
<path d="M28.1248 72H3.12498C2.29618 72 1.50133 71.684 0.915285 71.1216C0.329238 70.5591 0 69.7963 0 69.0008C0 68.2054 0.329238 67.4426 0.915285 66.8801C1.50133 66.3177 2.29618 66.0017 3.12498 66.0017H28.1248C28.9536 66.0017 29.7485 66.3177 30.3345 66.8801C30.9206 67.4426 31.2498 68.2054 31.2498 69.0008C31.2498 69.7963 30.9206 70.5591 30.3345 71.1216C29.7485 71.684 28.9536 72 28.1248 72ZM21.8749 60.0034H3.12498C2.29618 60.0034 1.50133 59.6874 0.915285 59.1249C0.329238 58.5625 0 57.7996 0 57.0042C0 56.2088 0.329238 55.4459 0.915285 54.8835C1.50133 54.321 2.29618 54.005 3.12498 54.005H21.8749C22.7037 54.005 23.4985 54.321 24.0846 54.8835C24.6706 55.4459 24.9998 56.2088 24.9998 57.0042C24.9998 57.7996 24.6706 58.5625 24.0846 59.1249C23.4985 59.6874 22.7037 60.0034 21.8749 60.0034ZM15.6249 48.0067H3.12498C2.29618 48.0067 1.50133 47.6907 0.915285 47.1283C0.329238 46.5658 0 45.803 0 45.0075C0 44.2121 0.329238 43.4493 0.915285 42.8868C1.50133 42.3244 2.29618 42.0084 3.12498 42.0084H15.6249C16.4537 42.0084 17.2485 42.3244 17.8346 42.8868C18.4206 43.4493 18.7499 44.2121 18.7499 45.0075C18.7499 45.803 18.4206 46.5658 17.8346 47.1283C17.2485 47.6907 16.4537 48.0067 15.6249 48.0067ZM40.6247 71.865C39.7959 71.9004 38.9864 71.6184 38.3743 71.081C37.7622 70.5436 37.3976 69.7948 37.3607 68.9993C37.3238 68.2039 37.6177 67.427 38.1776 66.8395C38.7376 66.252 39.5178 65.9021 40.3466 65.8667C46.2605 65.3474 51.8978 63.2215 56.5982 59.7382C61.2986 56.2548 64.8674 51.5581 66.8868 46.1983C68.9062 40.8384 69.2924 35.0373 68.0003 29.4743C66.7082 23.9114 63.7912 18.8169 59.591 14.7877C55.3909 10.7585 50.0814 7.96128 44.2845 6.72375C38.4875 5.48622 32.4432 5.85958 26.8594 7.80012C21.2756 9.74066 16.3836 13.168 12.7562 17.6808C9.12891 22.1935 6.91648 27.6048 6.37808 33.2808C6.34115 33.6731 6.22407 34.0546 6.03353 34.4034C5.84299 34.7523 5.58272 35.0617 5.26759 35.314C4.95245 35.5663 4.58862 35.7566 4.19686 35.874C3.8051 35.9913 3.39309 36.0335 2.98436 35.9981C2.57562 35.9626 2.17816 35.8502 1.81467 35.6674C1.45118 35.4845 1.12878 35.2347 0.865876 34.9323C0.602972 34.6298 0.404713 34.2806 0.282418 33.9047C0.160124 33.5287 0.11619 33.1332 0.153124 32.741C1.02465 23.5135 5.5706 14.964 12.8447 8.87234C20.1188 2.78063 29.5606 -0.38398 39.2046 0.0372453C48.8486 0.45847 57.9519 4.43308 64.6194 11.1337C71.2869 17.8343 75.0049 26.7447 74.9995 36.0101C75.0474 45.0026 71.5665 53.6829 65.2493 60.3243C58.932 66.9657 50.2413 71.0815 40.906 71.853C40.8122 71.862 40.7154 71.865 40.6247 71.865ZM37.4998 18.0151C36.671 18.0151 35.8761 18.3311 35.2901 18.8935C34.704 19.456 34.3748 20.2188 34.3748 21.0142V36.0101C34.375 36.8054 34.7043 37.5681 35.2904 38.1305L44.6653 47.1279C45.2547 47.6743 46.0441 47.9766 46.8634 47.9697C47.6828 47.9629 48.4666 47.6475 49.046 47.0914C49.6254 46.5353 49.954 45.7831 49.9612 44.9967C49.9683 44.2104 49.6533 43.4528 49.0841 42.8871L40.6247 34.7684V21.0142C40.6247 20.2188 40.2955 19.456 39.7094 18.8935C39.1234 18.3311 38.3286 18.0151 37.4998 18.0151Z" fill="#00183D"/>
</svg>
