<svg width="65" height="69" viewBox="0 0 65 69" fill="none" xmlns="http://www.w3.org/2000/svg">
<path d="M56.6015 38.4766V49.1092C56.6015 54.3846 54.4701 59.4439 50.6763 63.1741C46.8824 66.9044 41.7369 69 36.3716 69C31.0062 69 25.8607 66.9044 22.0668 63.1741C18.273 59.4439 16.1416 54.3846 16.1416 49.1092V46.7707C11.6466 46.0817 7.54975 43.8363 4.59002 40.4393C1.63029 37.0422 0.00242778 32.7172 0 28.2441V13.2201C0.000654854 11.767 0.369743 10.337 1.07388 9.05937C1.77801 7.78178 2.79497 6.69695 4.03277 5.903C4.12074 4.50919 4.67926 3.18411 5.61981 2.13771C6.56037 1.09131 7.82917 0.383437 9.22518 0.126264C10.6212 -0.13091 12.0646 0.0773218 13.3266 0.717961C14.5886 1.3586 15.5971 2.39501 16.1923 3.66297C16.7875 4.93092 16.9353 6.35791 16.6124 7.71782C16.2894 9.07773 15.5142 10.2928 14.4094 11.1705C13.3047 12.0481 11.9336 12.5382 10.5136 12.5631C9.09348 12.5879 7.70558 12.1461 6.56977 11.3077C6.10986 11.8424 5.85712 12.5198 5.85624 13.2201V28.2389C5.85624 31.6846 7.24837 34.9891 9.72639 37.4256C12.2044 39.8621 15.5653 41.2309 19.0698 41.2309C22.5742 41.2309 25.9351 39.8621 28.4131 37.4256C30.8912 34.9891 32.2833 31.6846 32.2833 28.2389V13.2201C32.2835 12.5969 32.0837 11.9895 31.7125 11.4844C30.5341 12.2648 29.1246 12.6366 27.7072 12.5407C26.2898 12.4448 24.9454 11.8868 23.8868 10.9551C22.8282 10.0233 22.116 8.77101 21.8628 7.39641C21.6096 6.0218 21.83 4.60344 22.489 3.36585C23.148 2.12826 24.208 1.14215 25.5013 0.56363C26.7945 -0.0148913 28.247 -0.152771 29.6289 0.171817C31.0108 0.496406 32.2431 1.26492 33.1307 2.35569C34.0184 3.44647 34.5106 4.79719 34.5296 6.19403C35.6485 7.00572 36.5581 8.06431 37.185 9.28462C37.812 10.5049 38.139 11.8529 38.1395 13.2201V28.2389C38.1371 32.712 36.5092 37.037 33.5495 40.4341C30.5898 43.8311 26.493 46.0765 21.9979 46.7655V49.104C21.9979 52.8516 23.512 56.4456 26.2071 59.0955C28.9021 61.7454 32.5575 63.2341 36.3689 63.2341C40.1803 63.2341 43.8357 61.7454 46.5308 59.0955C49.2259 56.4456 50.7399 52.8516 50.7399 49.104V38.4766C48.0837 37.778 45.7764 36.1536 44.248 33.9062C42.7196 31.6588 42.0745 28.9416 42.4328 26.2611C42.7911 23.5806 44.1284 21.1197 46.1955 19.3369C48.2626 17.5541 50.9184 16.5711 53.6681 16.5711C56.4177 16.5711 59.0735 17.5541 61.1406 19.3369C63.2077 21.1197 64.5451 23.5806 64.9034 26.2611C65.2617 28.9416 64.6165 31.6588 63.0881 33.9062C61.5598 36.1536 59.2524 37.778 56.5962 38.4766H56.6015ZM59.1385 27.7192C59.1385 26.6554 58.8176 25.6155 58.2165 24.7309C57.6154 23.8464 56.7611 23.157 55.7615 22.7499C54.7619 22.3428 53.662 22.2363 52.6008 22.4438C51.5397 22.6514 50.5649 23.1637 49.7999 23.9159C49.0349 24.6681 48.5138 25.6265 48.3028 26.6699C48.0917 27.7132 48.2 28.7947 48.6141 29.7775C49.0281 30.7604 49.7293 31.6004 50.6289 32.1914C51.5285 32.7824 52.5861 33.0979 53.6681 33.0979C55.119 33.0965 56.5101 32.5296 57.5365 31.5213C58.563 30.513 59.1409 29.1458 59.1437 27.7192H59.1385Z" fill="#00183D"/>
</svg>
