<svg width="74" height="62" viewBox="0 0 74 62" fill="none" xmlns="http://www.w3.org/2000/svg">
<path d="M63.8333 49.9583H71.5V7.04167C71.5 4.67146 69.7838 2.75 67.6667 2.75H29.3333C27.2163 2.75 25.5 4.67142 25.5 7.04167V49.9583H52.3333" stroke="#00183D" stroke-width="5" stroke-linecap="round" stroke-linejoin="round"/>
<path d="M40.8335 24.2083H48.5002M48.5002 24.2083H56.1668M48.5002 24.2083V15.625M48.5002 24.2083V32.7917" stroke="#00183D" stroke-width="5" stroke-linecap="round" stroke-linejoin="round"/>
<path d="M25.5 15.625H15.5878C14.5712 15.625 13.5961 16.0772 12.8773 16.882L3.62275 27.243C2.90388 28.0477 2.5 29.1395 2.5 30.2776V49.9583H10.1667" stroke="#00183D" stroke-width="5" stroke-linecap="round" stroke-linejoin="round"/>
<path d="M58.0835 58.5417C61.2591 58.5417 63.8335 55.6596 63.8335 52.1042C63.8335 48.5489 61.2591 45.6667 58.0835 45.6667C54.9079 45.6667 52.3335 48.5489 52.3335 52.1042C52.3335 55.6596 54.9079 58.5417 58.0835 58.5417Z" stroke="#00183D" stroke-width="5" stroke-linecap="round" stroke-linejoin="round"/>
<path d="M15.9165 58.5417C19.0921 58.5417 21.6665 55.6596 21.6665 52.1042C21.6665 48.5489 19.0921 45.6667 15.9165 45.6667C12.7409 45.6667 10.1665 48.5489 10.1665 52.1042C10.1665 55.6596 12.7409 58.5417 15.9165 58.5417Z" stroke="#00183D" stroke-width="5" stroke-linecap="round" stroke-linejoin="round"/>
</svg>
