<svg width="85" height="63" viewBox="0 0 85 63" fill="none" xmlns="http://www.w3.org/2000/svg">
<path fill-rule="evenodd" clip-rule="evenodd" d="M12.1186 53.4633V59.7531C12.1186 61.4891 13.4786 62.898 15.1543 62.898C16.83 62.898 18.19 61.4891 18.19 59.7531V53.4633H66.7614V59.7531C66.7614 61.4891 68.1214 62.898 69.7971 62.898C71.4729 62.898 72.8329 61.4891 72.8329 59.7531V53.4633H75.8929C80.923 53.4633 85 49.2397 85 44.0286V25.1592C85 23.4233 83.64 22.0143 81.9643 22.0143C80.2886 22.0143 78.9286 23.4233 78.9286 25.1592V34.5939H27.3214V31.3893C27.3214 28.8891 26.3621 26.4895 24.653 24.719C22.947 22.9515 20.6307 21.9546 18.2143 21.9546H6.07143V17.297C6.07143 15.561 4.71143 14.1521 3.03571 14.1521C1.36 14.1521 0 15.561 0 17.297V44.0286C0 46.532 0.959285 48.9315 2.66839 50.699C4.37446 52.4695 6.69071 53.4633 9.10714 53.4633H12.1186ZM78.9286 40.8837H6.07143V44.0286C6.07143 44.862 6.39018 45.664 6.96089 46.2521C7.52857 46.8433 8.30268 47.1735 9.10714 47.1735H75.8929C77.5686 47.1735 78.9286 45.7646 78.9286 44.0286V40.8837ZM6.07143 28.2444V34.5939H21.25V31.3893C21.25 30.5559 20.9312 29.7571 20.3605 29.1658C19.7929 28.5777 19.0188 28.2444 18.2143 28.2444H6.07143Z" fill="#00183D"/>
<path fill-rule="evenodd" clip-rule="evenodd" d="M39.4707 9.43472H33.3902C31.7145 9.43472 30.3545 10.8436 30.3545 12.5796C30.3545 14.3156 31.7145 15.7245 33.3902 15.7245H39.4495L39.4313 22.0049C39.4252 23.7409 40.7822 25.1529 42.4579 25.1592C44.1336 25.1655 45.4966 23.7597 45.5027 22.0237L45.5209 15.7245H51.6045C53.2802 15.7245 54.6402 14.3156 54.6402 12.5796C54.6402 10.8436 53.2802 9.43472 51.6045 9.43472H45.5422L45.5604 3.15435C45.5665 1.41837 44.2095 0.00631082 42.5338 2.10246e-05C40.8611 -0.00626877 39.495 1.3995 39.489 3.13549L39.4707 9.43472Z" fill="#00183D"/>
</svg>
