<svg width="45" height="40" viewBox="0 0 45 40" fill="none" xmlns="http://www.w3.org/2000/svg">
<path fill-rule="evenodd" clip-rule="evenodd" d="M45 14.3823C45 7.85737 41.8768 2.78519 37.0999 0.837689C32.643 -0.979324 27.2602 0.125147 22.5 4.48833C17.7398 0.125147 12.3569 -0.979221 7.90005 0.837853C3.12317 2.7854 0 7.85757 0 14.3824C0 18.7427 2.36357 23.0359 5.30833 26.7343C8.28285 30.4703 12.0251 33.8159 15.1488 36.3121L15.4308 36.5377C17.9421 38.5474 19.7571 40 22.5 40C25.2429 40 27.058 38.5474 29.5692 36.5377L29.8513 36.3121C32.975 33.8159 36.7171 30.4705 39.6917 26.7345C42.6363 23.0359 45 18.7427 45 14.3823ZM23.6493 7.71461C28.0407 3.08956 32.603 2.33671 35.8941 3.67836C39.2277 5.03744 41.8605 8.78282 41.8605 14.3823C41.8605 15.7051 41.5691 17.0735 41.0419 18.4634H36.3895L36.1551 18.4632C35.0129 18.4613 33.9984 18.4597 33.0754 18.8625C32.1522 19.2656 31.4747 20.0056 30.7116 20.8392L30.555 21.0102L28.4007 23.3559C28.2403 23.5307 28.1093 23.6732 27.9936 23.7947C27.8839 23.6687 27.7593 23.521 27.6072 23.3403L20.1744 14.5111C19.8823 14.1639 19.5698 13.7924 19.2642 13.5167C18.9082 13.1957 18.382 12.8345 17.6462 12.7912C16.9105 12.7479 16.3439 13.0447 15.9512 13.3217C15.6141 13.5596 15.2585 13.8917 14.9261 14.2022L11.7245 17.1902C10.7371 18.1118 10.5311 18.2689 10.3155 18.3534C10.1 18.4379 9.84035 18.4634 8.47674 18.4634H3.95822C3.43097 17.0735 3.13953 15.7051 3.13953 14.3824C3.13953 8.78306 5.77235 5.03764 9.10601 3.6785C12.3969 2.3368 16.9595 3.08958 21.3507 7.71461C21.6477 8.02739 22.064 8.20505 22.5 8.20505C22.936 8.20505 23.3523 8.02739 23.6493 7.71461ZM5.47311 21.5401C6.13262 22.6423 6.91167 23.7467 7.78356 24.8418C10.555 28.3225 14.0983 31.5026 17.1329 33.9276C20.0484 36.2577 20.9899 36.9233 22.5 36.9233C24.0103 36.9233 24.9516 36.2577 27.8671 33.9276C30.9018 31.5026 34.4451 28.3227 37.2165 24.8418C38.0884 23.7467 38.8674 22.6423 39.527 21.5401H36.3895C34.8737 21.5401 34.5864 21.5712 34.3526 21.6732C34.119 21.7751 33.903 21.9638 32.8885 23.0684L30.6808 25.4723C30.3503 25.8327 30.0012 26.2131 29.6655 26.4888C29.278 26.8071 28.701 27.1642 27.9201 27.1478C27.1394 27.1314 26.5789 26.7507 26.2055 26.4162C25.8823 26.1268 25.5504 25.7321 25.2364 25.3586L17.8009 16.5265C17.6596 16.3585 17.5445 16.2221 17.443 16.1054C17.3281 16.2092 17.1972 16.3312 17.0364 16.4814L13.7375 19.5605C12.9924 20.2581 12.3314 20.8769 11.4816 21.21C10.6317 21.5431 9.71753 21.5417 8.68718 21.5403L5.47311 21.5401Z" fill="white"/>
</svg>
